<?xml version="1.0" encoding="UTF-8"?>
<!DOCTYPE svg PUBLIC "-//W3C//DTD SVG 1.1//EN" "http://www.w3.org/Graphics/SVG/1.1/DTD/svg11.dtd">
<!-- Creator: CorelDRAW X8 -->
<svg xmlns="http://www.w3.org/2000/svg" xml:space="preserve" width="11in" height="8.5in" version="1.1" style="shape-rendering:geometricPrecision; text-rendering:geometricPrecision; image-rendering:optimizeQuality; fill-rule:evenodd; clip-rule:evenodd"
viewBox="0 0 11000 8500"
 xmlns:xlink="http://www.w3.org/1999/xlink">
 <defs>
  <style type="text/css">
   <![CDATA[
    .str0 {stroke:#373435;stroke-width:6.94094}
    .fil1 {fill:#FEFEFE}
    .fil7 {fill:#006835}
    .fil2 {fill:#010101}
    .fil8 {fill:#16973C}
    .fil9 {fill:#16983C}
    .fil10 {fill:#17983C}
    .fil11 {fill:#17983D}
    .fil12 {fill:#17993D}
    .fil13 {fill:#18993D}
    .fil14 {fill:#189A3D}
    .fil15 {fill:#189A3E}
    .fil16 {fill:#199A3E}
    .fil17 {fill:#199B3E}
    .fil18 {fill:#199C3E}
    .fil19 {fill:#1A9C3E}
    .fil20 {fill:#1A9D3E}
    .fil21 {fill:#1A9D3F}
    .fil22 {fill:#1B9D3F}
    .fil23 {fill:#1B9E3F}
    .fil24 {fill:#1B9F3F}
    .fil25 {fill:#1C9F3F}
    .fil26 {fill:#1C9F40}
    .fil27 {fill:#1CA040}
    .fil28 {fill:#1DA040}
    .fil29 {fill:#1DA140}
    .fil30 {fill:#1EA141}
    .fil31 {fill:#1EA241}
    .fil32 {fill:#1FA341}
    .fil33 {fill:#1FA442}
    .fil34 {fill:#20A542}
    .fil35 {fill:#21A642}
    .fil36 {fill:#21A643}
    .fil37 {fill:#21A743}
    .fil38 {fill:#22A743}
    .fil39 {fill:#22A844}
    .fil40 {fill:#23A944}
    .fil41 {fill:#24AA44}
    .fil42 {fill:#24AB45}
    .fil43 {fill:#25AC45}
    .fil44 {fill:#26AD46}
    .fil45 {fill:#27AE46}
    .fil46 {fill:#27AF47}
    .fil47 {fill:#28B047}
    .fil48 {fill:#29B248}
    .fil49 {fill:#2AB348}
    .fil50 {fill:#2BB549}
    .fil51 {fill:#2DB64A}
    .fil52 {fill:#2EB84B}
    .fil53 {fill:#2FB94B}
    .fil54 {fill:#30BB4C}
    .fil55 {fill:#31BC4C}
    .fil56 {fill:#31BD4D}
    .fil57 {fill:#32BE4D}
    .fil58 {fill:#33BF4E}
    .fil59 {fill:#34C04E}
    .fil60 {fill:#34C14F}
    .fil61 {fill:#35C24F}
    .fil62 {fill:#36C34F}
    .fil63 {fill:#36C450}
    .fil64 {fill:#37C450}
    .fil65 {fill:#37C550}
    .fil66 {fill:#37C551}
    .fil67 {fill:#38C651}
    .fil68 {fill:#39C751}
    .fil69 {fill:#39C852}
    .fil70 {fill:#3AC952}
    .fil71 {fill:#3ACA52}
    .fil72 {fill:#3BCA53}
    .fil73 {fill:#3BCB53}
    .fil74 {fill:#3CCB53}
    .fil75 {fill:#3CCC53}
    .fil76 {fill:#3CCC54}
    .fil77 {fill:#3DCC54}
    .fil78 {fill:#3DCD54}
    .fil79 {fill:#3DCE54}
    .fil80 {fill:#3ECE54}
    .fil81 {fill:#3ECE55}
    .fil82 {fill:#3ECF55}
    .fil83 {fill:#3FCF55}
    .fil84 {fill:#3FD055}
    .fil85 {fill:#3FD155}
    .fil86 {fill:#40D155}
    .fil87 {fill:#40D156}
    .fil88 {fill:#40D256}
    .fil89 {fill:#41D256}
    .fil90 {fill:#41D356}
    .fil91 {fill:#41D357}
    .fil92 {fill:#42D357}
    .fil93 {fill:#42D457}
    .fil0 {fill:url(#id1)}
    .fil3 {fill:url(#id2)}
    .fil5 {fill:url(#id3)}
    .fil6 {fill:url(#id4)}
    .fil4 {fill:url(#id5)}
   ]]>
  </style>
    <clipPath id="id0">
     <path d="M1175 3918c90,1 271,3 370,3 44,0 60,0 68,-15 6,-12 12,-33 -6,-77 -33,-84 -110,-206 -170,-270 -95,-101 -154,11 -208,90 -39,56 -200,267 -54,269z"/>
    </clipPath>
  <linearGradient id="id1" gradientUnits="userSpaceOnUse" x1="691.134" y1="4198.05" x2="2409.56" y2="4198.05">
   <stop offset="0" style="stop-opacity:1; stop-color:#046134"/>
   <stop offset="0.14902" style="stop-opacity:1; stop-color:#087A37"/>
   <stop offset="0.329412" style="stop-opacity:1; stop-color:#087C38"/>
   <stop offset="0.509804" style="stop-opacity:1; stop-color:#097F38"/>
   <stop offset="0.678431" style="stop-opacity:1; stop-color:#0C8539"/>
   <stop offset="0.85098" style="stop-opacity:1; stop-color:#15993A"/>
   <stop offset="1" style="stop-opacity:1; stop-color:#21AC3F"/>
  </linearGradient>
  <linearGradient id="id2" gradientUnits="userSpaceOnUse" xlink:href="#id1" x1="6930.74" y1="4061.79" x2="7690.33" y2="4061.79">
  </linearGradient>
  <linearGradient id="id3" gradientUnits="userSpaceOnUse" xlink:href="#id1" x1="8837.94" y1="4056.28" x2="9382.19" y2="4056.28">
  </linearGradient>
  <linearGradient id="id4" gradientUnits="userSpaceOnUse" xlink:href="#id1" x1="9430.61" y1="4060.91" x2="10385.4" y2="4060.91">
  </linearGradient>
  <linearGradient id="id5" gradientUnits="userSpaceOnUse" xlink:href="#id1" x1="7807.66" y1="4061.65" x2="8688.55" y2="4061.65">
  </linearGradient>
 </defs>
 <g id="Layer_x0020_1">
  <metadata id="CorelCorpID_0Corel-Layer"/>
  <path class="fil0" d="M1343 4005c125,0 250,1 375,0 55,-1 101,20 141,53 37,31 47,71 45,118 -5,109 -80,183 -187,183 -120,0 -239,0 -359,0 -23,0 -48,1 -47,30 2,27 22,37 50,36 117,-1 234,1 350,0 153,-3 241,-110 256,-238 5,-43 -11,-90 -37,-130 -6,-9 -15,-20 2,-34 72,-57 128,-131 194,-194 35,-33 72,-64 124,-63 65,0 118,29 152,80 38,56 28,120 -6,173 -106,161 -214,321 -325,479 -39,54 -93,96 -157,121 -19,8 -38,12 -59,12 -220,0 -440,0 -659,0 -22,0 -38,-5 -55,-21 -142,-143 -284,-286 -428,-428 -22,-22 -22,-34 -2,-56 75,-79 164,-122 274,-121 119,0 239,0 358,0z"/>
  <path class="fil1 str0" d="M1149 4704c-183,-181 -365,-364 -547,-546 -10,-10 -20,-20 -36,-21 -14,2 -25,10 -36,21 -62,64 -124,128 -186,192 -34,35 -34,46 1,81 181,179 363,358 543,539 25,25 41,25 66,0 65,-67 131,-132 198,-197 26,-26 20,-46 -3,-69zm-247 122c-49,0 -95,-46 -95,-96 0,-51 40,-90 94,-91 53,0 94,38 96,90 1,48 -46,97 -95,97z"/>
  <path class="fil2" d="M2539 3821c35,-69 81,-122 140,-159 59,-37 125,-55 198,-55 63,0 117,12 164,38 47,25 83,58 109,100l0 -126 270 0 0 884 -270 0 0 -125c-27,41 -63,74 -111,100 -47,25 -101,38 -164,38 -72,0 -137,-19 -196,-57 -59,-37 -106,-90 -140,-160 -34,-69 -51,-149 -51,-240 0,-90 17,-170 51,-238zm554 81c-37,-39 -83,-59 -137,-59 -53,0 -99,20 -137,58 -37,39 -56,92 -56,159 0,68 19,121 56,161 38,40 83,59 137,59 54,0 100,-19 137,-58 38,-39 57,-93 57,-160 0,-68 -19,-122 -57,-160z"/>
  <path class="fil2" d="M5006 3710c65,67 98,159 98,277l0 516 -270 0 0 -480c0,-57 -14,-101 -45,-132 -30,-31 -71,-46 -124,-46 -53,0 -94,15 -124,46 -30,31 -45,75 -45,132l0 480 -269 0 0 -480c0,-57 -15,-101 -46,-132 -30,-31 -71,-46 -124,-46 -53,0 -94,15 -124,46 -30,31 -45,75 -45,132l0 480 -271 0 0 -884 271 0 0 111c27,-37 63,-66 108,-88 44,-21 94,-32 150,-32 67,0 126,14 178,43 53,28 94,69 123,121 31,-48 72,-88 125,-118 53,-31 111,-46 173,-46 109,0 196,33 261,100z"/>
  <path class="fil2" d="M5462 4461c-69,-37 -123,-90 -163,-159 -39,-68 -59,-149 -59,-240 0,-91 20,-171 60,-240 40,-70 95,-122 165,-160 70,-37 148,-55 235,-55 86,0 164,18 234,55 70,38 124,90 165,160 40,69 60,149 60,240 0,90 -20,171 -61,239 -40,70 -96,123 -166,160 -70,37 -149,55 -235,55 -88,0 -166,-18 -235,-55zm366 -237c37,-37 55,-92 55,-163 0,-70 -18,-125 -53,-163 -36,-38 -79,-57 -131,-57 -53,0 -97,19 -131,56 -35,38 -53,93 -53,164 0,71 17,126 52,163 34,38 77,57 129,57 52,0 96,-18 132,-57z"/>
  <path class="fil2" d="M6692 3652c48,-28 100,-42 158,-42l0 287 -74 0c-68,0 -118,14 -152,43 -34,29 -51,80 -51,153l0 410 -271 0 0 -884 271 0 0 148c32,-49 72,-87 119,-115z"/>
  <path class="fil3" d="M7134 4476c-60,-26 -108,-62 -142,-108 -35,-46 -55,-97 -59,-154l268 0c3,30 17,55 42,74 26,19 57,28 94,28 33,0 60,-6 78,-19 18,-13 28,-31 28,-52 0,-25 -13,-44 -40,-56 -26,-12 -69,-25 -128,-40 -64,-15 -117,-31 -159,-47 -42,-16 -78,-42 -109,-77 -31,-36 -46,-83 -46,-144 0,-50 14,-96 42,-138 28,-42 69,-75 124,-99 54,-24 119,-36 194,-36 110,0 198,27 262,82 64,55 100,128 110,219l-250 0c-4,-31 -18,-55 -41,-73 -22,-18 -52,-27 -89,-27 -32,0 -56,6 -73,18 -17,12 -25,29 -25,50 0,25 13,44 40,57 27,12 69,25 126,38 65,17 119,33 160,50 41,16 77,42 108,79 31,36 48,85 49,146 0,52 -15,98 -44,139 -29,41 -71,73 -125,96 -54,23 -117,35 -189,35 -77,-1 -146,-14 -206,-41z"/>
  <path class="fil4" d="M8692 4127l-613 0c5,54 22,96 54,126 31,28 69,43 114,43 68,0 115,-28 141,-85l288 0c-15,58 -41,110 -80,156 -38,47 -87,83 -145,110 -58,26 -123,39 -194,39 -87,0 -164,-18 -231,-55 -68,-37 -121,-90 -159,-158 -38,-69 -57,-149 -57,-241 0,-92 19,-172 56,-241 38,-68 90,-121 158,-158 68,-37 145,-55 233,-55 85,0 162,17 228,53 67,36 119,87 156,154 37,66 56,144 56,233 0,24 -2,51 -5,79zm-272 -151c0,-47 -16,-83 -48,-111 -31,-27 -71,-41 -119,-41 -45,0 -83,13 -114,40 -31,26 -51,64 -58,112l339 0 0 0z"/>
  <path class="fil5" d="M9229 3652c48,-28 101,-42 159,-42l0 287 -75 0c-67,0 -118,14 -152,43 -34,29 -51,80 -51,153l0 410 -270 0 0 -884 270 0 0 148c32,-49 71,-87 119,-115z"/>
  <polygon class="fil6" points="9915,4250 10107,3619 10395,3619 10081,4503 9747,4503 9433,3619 9723,3619 "/>
  <path class="fil7" d="M1034 3916l-341 -5 0 -225 194 -17 51 -128 -124 -120 167 -166 115 106 141 -50 6 -172 231 1 11 176 132 50 101 -109 173 170 -89 112 80 127 137 3 4 231 -338 3c-3,-59 -3,-119 -10,-178 -4,-34 -20,-48 -39,-74 -15,-21 -29,-42 -44,-62 -18,-22 -50,-39 -73,-56 -40,-26 -49,-21 -95,-26 -25,-3 -60,-9 -85,-4 -28,7 -104,22 -125,37 -18,12 -37,28 -54,42 -25,23 -57,66 -74,95 -15,30 -25,78 -33,112 -6,25 -9,54 -13,80 -2,15 -4,30 -6,45l0 2z"/>
  <g>
   <g style="clip-path:url(#id0)">
    <polygon class="fil8" points="1358,4203 1316,4167 1679,3753 1721,3790 "/>
    <polygon id="1" class="fil8" points="1317,4168 1315,4166 1678,3752 1680,3754 "/>
    <polygon id="2" class="fil8" points="1316,4167 1314,4165 1677,3751 1679,3753 "/>
    <polygon id="3" class="fil8" points="1314,4165 1312,4164 1675,3750 1677,3752 "/>
    <polygon id="4" class="fil8" points="1313,4164 1311,4162 1674,3749 1676,3750 "/>
    <polygon id="5" class="fil8" points="1312,4163 1309,4161 1672,3747 1674,3749 "/>
    <polygon id="6" class="fil8" points="1310,4162 1308,4160 1671,3746 1673,3748 "/>
    <polygon id="7" class="fil8" points="1309,4161 1307,4159 1670,3745 1672,3747 "/>
    <polygon id="8" class="fil8" points="1307,4159 1305,4158 1668,3744 1670,3746 "/>
    <polygon id="9" class="fil8" points="1306,4158 1304,4157 1667,3743 1669,3745 "/>
    <polygon id="10" class="fil8" points="1305,4157 1303,4155 1666,3742 1668,3743 "/>
    <polygon id="11" class="fil8" points="1303,4156 1301,4154 1664,3740 1666,3742 "/>
    <polygon id="12" class="fil8" points="1302,4155 1300,4153 1663,3739 1665,3741 "/>
    <polygon id="13" class="fil8" points="1301,4154 1299,4152 1662,3738 1664,3740 "/>
    <polygon id="14" class="fil9" points="1299,4152 1297,4151 1660,3737 1662,3739 "/>
    <polygon id="15" class="fil9" points="1298,4151 1296,4149 1659,3736 1661,3737 "/>
    <polygon id="16" class="fil9" points="1297,4150 1295,4148 1658,3734 1660,3736 "/>
    <polygon id="17" class="fil9" points="1295,4149 1293,4147 1656,3733 1658,3735 "/>
    <polygon id="18" class="fil9" points="1294,4148 1292,4146 1655,3732 1657,3734 "/>
    <polygon id="19" class="fil10" points="1293,4146 1290,4145 1653,3731 1655,3733 "/>
    <polygon id="20" class="fil10" points="1291,4145 1289,4143 1652,3730 1654,3731 "/>
    <polygon id="21" class="fil10" points="1290,4144 1288,4142 1651,3728 1653,3730 "/>
    <polygon id="22" class="fil10" points="1288,4143 1286,4141 1649,3727 1651,3729 "/>
    <polygon id="23" class="fil10" points="1287,4142 1285,4140 1648,3726 1650,3728 "/>
    <polygon id="24" class="fil10" points="1286,4140 1284,4139 1647,3725 1649,3727 "/>
    <polygon id="25" class="fil10" points="1284,4139 1282,4137 1645,3724 1647,3725 "/>
    <polygon id="26" class="fil10" points="1283,4138 1281,4136 1644,3722 1646,3724 "/>
    <polygon id="27" class="fil10" points="1282,4137 1280,4135 1643,3721 1645,3723 "/>
    <polygon id="28" class="fil10" points="1280,4136 1278,4134 1641,3720 1643,3722 "/>
    <polygon id="29" class="fil11" points="1279,4134 1277,4133 1640,3719 1642,3721 "/>
    <polygon id="30" class="fil11" points="1278,4133 1276,4131 1639,3718 1641,3719 "/>
    <polygon id="31" class="fil11" points="1276,4132 1274,4130 1637,3717 1639,3718 "/>
    <polygon id="32" class="fil11" points="1275,4131 1273,4129 1636,3715 1638,3717 "/>
    <polygon id="33" class="fil11" points="1273,4130 1271,4128 1634,3714 1636,3716 "/>
    <polygon id="34" class="fil11" points="1272,4129 1270,4127 1633,3713 1635,3715 "/>
    <polygon id="35" class="fil11" points="1271,4127 1269,4126 1632,3712 1634,3714 "/>
    <polygon id="36" class="fil12" points="1269,4126 1267,4124 1630,3711 1632,3712 "/>
    <polygon id="37" class="fil12" points="1268,4125 1266,4123 1629,3709 1631,3711 "/>
    <polygon id="38" class="fil12" points="1267,4124 1265,4122 1628,3708 1630,3710 "/>
    <polygon id="39" class="fil12" points="1265,4123 1263,4121 1626,3707 1628,3709 "/>
    <polygon id="40" class="fil12" points="1264,4121 1262,4120 1625,3706 1627,3708 "/>
    <polygon id="41" class="fil12" points="1263,4120 1261,4118 1624,3705 1626,3706 "/>
    <polygon id="42" class="fil12" points="1261,4119 1259,4117 1622,3703 1624,3705 "/>
    <polygon id="43" class="fil12" points="1260,4118 1258,4116 1621,3702 1623,3704 "/>
    <polygon id="44" class="fil12" points="1259,4117 1257,4115 1620,3701 1622,3703 "/>
    <polygon id="45" class="fil13" points="1257,4115 1255,4114 1618,3700 1620,3702 "/>
    <polygon id="46" class="fil13" points="1256,4114 1254,4112 1617,3699 1619,3700 "/>
    <polygon id="47" class="fil13" points="1254,4113 1252,4111 1615,3697 1617,3699 "/>
    <polygon id="48" class="fil13" points="1253,4112 1251,4110 1614,3696 1616,3698 "/>
    <polygon id="49" class="fil13" points="1252,4111 1250,4109 1613,3695 1615,3697 "/>
    <polygon id="50" class="fil13" points="1250,4109 1248,4108 1611,3694 1613,3696 "/>
    <polygon id="51" class="fil14" points="1249,4108 1247,4106 1610,3693 1612,3694 "/>
    <polygon id="52" class="fil14" points="1248,4107 1246,4105 1609,3692 1611,3693 "/>
    <polygon id="53" class="fil14" points="1246,4106 1244,4104 1607,3690 1609,3692 "/>
    <polygon id="54" class="fil14" points="1245,4105 1243,4103 1606,3689 1608,3691 "/>
    <polygon id="55" class="fil14" points="1244,4103 1242,4102 1605,3688 1607,3690 "/>
    <polygon id="56" class="fil14" points="1242,4102 1240,4101 1603,3687 1605,3689 "/>
    <polygon id="57" class="fil14" points="1241,4101 1239,4099 1602,3686 1604,3687 "/>
    <polygon id="58" class="fil14" points="1240,4100 1238,4098 1600,3684 1603,3686 "/>
    <polygon id="59" class="fil14" points="1238,4099 1236,4097 1599,3683 1601,3685 "/>
    <polygon id="60" class="fil14" points="1237,4098 1235,4096 1598,3682 1600,3684 "/>
    <polygon id="61" class="fil15" points="1235,4096 1233,4095 1596,3681 1598,3683 "/>
    <polygon id="62" class="fil16" points="1234,4095 1232,4093 1595,3680 1597,3681 "/>
    <polygon id="63" class="fil17" points="1233,4094 1231,4092 1594,3678 1596,3680 "/>
    <polygon id="64" class="fil17" points="1231,4093 1229,4091 1592,3677 1594,3679 "/>
    <polygon id="65" class="fil17" points="1230,4092 1228,4090 1591,3676 1593,3678 "/>
    <polygon id="66" class="fil17" points="1229,4090 1227,4089 1590,3675 1592,3677 "/>
    <polygon id="67" class="fil17" points="1227,4089 1225,4087 1588,3674 1590,3675 "/>
    <polygon id="68" class="fil17" points="1226,4088 1224,4086 1587,3672 1589,3674 "/>
    <polygon id="69" class="fil17" points="1225,4087 1223,4085 1586,3671 1588,3673 "/>
    <polygon id="70" class="fil17" points="1223,4086 1221,4084 1584,3670 1586,3672 "/>
    <polygon id="71" class="fil17" points="1222,4084 1220,4083 1583,3669 1585,3671 "/>
    <polygon id="72" class="fil18" points="1221,4083 1219,4081 1581,3668 1584,3669 "/>
    <polygon id="73" class="fil18" points="1219,4082 1217,4080 1580,3666 1582,3668 "/>
    <polygon id="74" class="fil18" points="1218,4081 1216,4079 1579,3665 1581,3667 "/>
    <polygon id="75" class="fil19" points="1216,4080 1214,4078 1577,3664 1579,3666 "/>
    <polygon id="76" class="fil19" points="1215,4078 1213,4077 1576,3663 1578,3665 "/>
    <polygon id="77" class="fil19" points="1214,4077 1212,4076 1575,3662 1577,3664 "/>
    <polygon id="78" class="fil19" points="1212,4076 1210,4074 1573,3661 1575,3662 "/>
    <polygon id="79" class="fil20" points="1211,4075 1209,4073 1572,3659 1574,3661 "/>
    <polygon id="80" class="fil21" points="1210,4074 1208,4072 1571,3658 1573,3660 "/>
    <polygon id="81" class="fil21" points="1208,4073 1206,4071 1569,3657 1571,3659 "/>
    <polygon id="82" class="fil21" points="1207,4071 1205,4070 1568,3656 1570,3658 "/>
    <polygon id="83" class="fil21" points="1206,4070 1204,4068 1567,3655 1569,3656 "/>
    <polygon id="84" class="fil22" points="1204,4069 1202,4067 1565,3653 1567,3655 "/>
    <polygon id="85" class="fil23" points="1203,4068 1201,4066 1564,3652 1566,3654 "/>
    <polygon id="86" class="fil23" points="1202,4067 1199,4065 1562,3651 1565,3653 "/>
    <polygon id="87" class="fil23" points="1200,4065 1198,4064 1561,3650 1563,3652 "/>
    <polygon id="88" class="fil23" points="1199,4064 1197,4062 1560,3649 1562,3650 "/>
    <polygon id="89" class="fil23" points="1197,4063 1195,4061 1558,3647 1560,3649 "/>
    <polygon id="90" class="fil24" points="1196,4062 1194,4060 1557,3646 1559,3648 "/>
    <polygon id="91" class="fil25" points="1195,4061 1193,4059 1556,3645 1558,3647 "/>
    <polygon id="92" class="fil26" points="1193,4059 1191,4058 1554,3644 1556,3646 "/>
    <polygon id="93" class="fil26" points="1192,4058 1190,4056 1553,3643 1555,3644 "/>
    <polygon id="94" class="fil26" points="1191,4057 1189,4055 1552,3641 1554,3643 "/>
    <polygon id="95" class="fil27" points="1189,4056 1187,4054 1550,3640 1552,3642 "/>
    <polygon id="96" class="fil27" points="1188,4055 1186,4053 1549,3639 1551,3641 "/>
    <polygon id="97" class="fil28" points="1187,4053 1185,4052 1548,3638 1550,3640 "/>
    <polygon id="98" class="fil29" points="1185,4052 1183,4050 1546,3637 1548,3638 "/>
    <polygon id="99" class="fil29" points="1184,4051 1182,4049 1545,3636 1547,3637 "/>
    <polygon id="100" class="fil29" points="1183,4050 1180,4048 1543,3634 1545,3636 "/>
    <polygon id="101" class="fil30" points="1181,4049 1179,4047 1542,3633 1544,3635 "/>
    <polygon id="102" class="fil31" points="1180,4048 1178,4046 1541,3632 1543,3634 "/>
    <polygon id="103" class="fil31" points="1178,4046 1176,4045 1539,3631 1541,3633 "/>
    <polygon id="104" class="fil31" points="1177,4045 1175,4043 1538,3630 1540,3631 "/>
    <polygon id="105" class="fil32" points="1176,4044 1174,4042 1537,3628 1539,3630 "/>
    <polygon id="106" class="fil32" points="1174,4043 1172,4041 1535,3627 1537,3629 "/>
    <polygon id="107" class="fil33" points="1173,4042 1171,4040 1534,3626 1536,3628 "/>
    <polygon id="108" class="fil33" points="1172,4040 1170,4039 1533,3625 1535,3627 "/>
    <polygon id="109" class="fil34" points="1170,4039 1168,4037 1531,3624 1533,3625 "/>
    <polygon id="110" class="fil34" points="1169,4038 1167,4036 1530,3622 1532,3624 "/>
    <polygon id="111" class="fil35" points="1168,4037 1166,4035 1529,3621 1531,3623 "/>
    <polygon id="112" class="fil36" points="1166,4036 1164,4034 1527,3620 1529,3622 "/>
    <polygon id="113" class="fil37" points="1165,4034 1163,4033 1526,3619 1528,3621 "/>
    <polygon id="114" class="fil38" points="1164,4033 1161,4031 1524,3618 1526,3619 "/>
    <polygon id="115" class="fil39" points="1162,4032 1160,4030 1523,3616 1525,3618 "/>
    <polygon id="116" class="fil40" points="1161,4031 1159,4029 1522,3615 1524,3617 "/>
    <polygon id="117" class="fil40" points="1159,4030 1157,4028 1520,3614 1522,3616 "/>
    <polygon id="118" class="fil41" points="1158,4028 1156,4027 1519,3613 1521,3615 "/>
    <polygon id="119" class="fil42" points="1157,4027 1155,4025 1518,3612 1520,3613 "/>
    <polygon id="120" class="fil43" points="1155,4026 1153,4024 1516,3611 1518,3612 "/>
    <polygon id="121" class="fil44" points="1154,4025 1152,4023 1515,3609 1517,3611 "/>
    <polygon id="122" class="fil45" points="1153,4024 1151,4022 1514,3608 1516,3610 "/>
    <polygon id="123" class="fil46" points="1151,4022 1149,4021 1512,3607 1514,3609 "/>
    <polygon id="124" class="fil47" points="1150,4021 1148,4020 1511,3606 1513,3608 "/>
    <polygon id="125" class="fil48" points="1149,4020 1147,4018 1510,3605 1512,3606 "/>
    <polygon id="126" class="fil49" points="1147,4019 1145,4017 1508,3603 1510,3605 "/>
    <polygon id="127" class="fil50" points="1146,4018 1144,4016 1507,3602 1509,3604 "/>
    <polygon id="128" class="fil51" points="1144,4017 1142,4015 1505,3601 1507,3603 "/>
    <polygon id="129" class="fil52" points="1143,4015 1141,4014 1504,3600 1506,3602 "/>
    <polygon id="130" class="fil53" points="1142,4014 1140,4012 1503,3599 1505,3600 "/>
    <polygon id="131" class="fil54" points="1140,4013 1138,4011 1501,3597 1503,3599 "/>
    <polygon id="132" class="fil55" points="1139,4012 1137,4010 1500,3596 1502,3598 "/>
    <polygon id="133" class="fil56" points="1138,4011 1136,4009 1499,3595 1501,3597 "/>
    <polygon id="134" class="fil57" points="1136,4009 1134,4008 1497,3594 1499,3596 "/>
    <polygon id="135" class="fil58" points="1135,4008 1133,4006 1496,3593 1498,3594 "/>
    <polygon id="136" class="fil59" points="1134,4007 1132,4005 1495,3591 1497,3593 "/>
    <polygon id="137" class="fil60" points="1132,4006 1130,4004 1493,3590 1495,3592 "/>
    <polygon id="138" class="fil61" points="1131,4005 1129,4003 1492,3589 1494,3591 "/>
    <polygon id="139" class="fil61" points="1130,4003 1128,4002 1491,3588 1493,3590 "/>
    <polygon id="140" class="fil62" points="1128,4002 1126,4000 1489,3587 1491,3588 "/>
    <polygon id="141" class="fil63" points="1127,4001 1125,3999 1488,3585 1490,3587 "/>
    <polygon id="142" class="fil64" points="1125,4000 1123,3998 1486,3584 1488,3586 "/>
    <polygon id="143" class="fil65" points="1124,3999 1122,3997 1485,3583 1487,3585 "/>
    <polygon id="144" class="fil66" points="1123,3997 1121,3996 1484,3582 1486,3584 "/>
    <polygon id="145" class="fil67" points="1121,3996 1119,3995 1482,3581 1484,3583 "/>
    <polygon id="146" class="fil67" points="1120,3995 1118,3993 1481,3580 1483,3581 "/>
    <polygon id="147" class="fil68" points="1119,3994 1117,3992 1480,3578 1482,3580 "/>
    <polygon id="148" class="fil68" points="1117,3993 1115,3991 1478,3577 1480,3579 "/>
    <polygon id="149" class="fil69" points="1116,3992 1114,3990 1477,3576 1479,3578 "/>
    <polygon id="150" class="fil69" points="1115,3990 1113,3989 1476,3575 1478,3577 "/>
    <polygon id="151" class="fil70" points="1113,3989 1111,3987 1474,3574 1476,3575 "/>
    <polygon id="152" class="fil70" points="1112,3988 1110,3986 1473,3572 1475,3574 "/>
    <polygon id="153" class="fil70" points="1111,3987 1109,3985 1471,3571 1474,3573 "/>
    <polygon id="154" class="fil71" points="1109,3986 1107,3984 1470,3570 1472,3572 "/>
    <polygon id="155" class="fil72" points="1108,3984 1106,3983 1469,3569 1471,3571 "/>
    <polygon id="156" class="fil72" points="1106,3983 1104,3981 1467,3568 1469,3569 "/>
    <polygon id="157" class="fil72" points="1105,3982 1103,3980 1466,3566 1468,3568 "/>
    <polygon id="158" class="fil73" points="1104,3981 1102,3979 1465,3565 1467,3567 "/>
    <polygon id="159" class="fil74" points="1102,3980 1100,3978 1463,3564 1465,3566 "/>
    <polygon id="160" class="fil74" points="1101,3978 1099,3977 1462,3563 1464,3565 "/>
    <polygon id="161" class="fil75" points="1100,3977 1098,3975 1461,3562 1463,3563 "/>
    <polygon id="162" class="fil75" points="1098,3976 1096,3974 1459,3560 1461,3562 "/>
    <polygon id="163" class="fil75" points="1097,3975 1095,3973 1458,3559 1460,3561 "/>
    <polygon id="164" class="fil76" points="1096,3974 1094,3972 1457,3558 1459,3560 "/>
    <polygon id="165" class="fil77" points="1094,3972 1092,3971 1455,3557 1457,3559 "/>
    <polygon id="166" class="fil78" points="1093,3971 1091,3969 1454,3556 1456,3557 "/>
    <polygon id="167" class="fil78" points="1092,3970 1090,3968 1452,3555 1455,3556 "/>
    <polygon id="168" class="fil78" points="1090,3969 1088,3967 1451,3553 1453,3555 "/>
    <polygon id="169" class="fil78" points="1089,3968 1087,3966 1450,3552 1452,3554 "/>
    <polygon id="170" class="fil78" points="1087,3967 1085,3965 1448,3551 1450,3553 "/>
    <polygon id="171" class="fil79" points="1086,3965 1084,3964 1447,3550 1449,3552 "/>
    <polygon id="172" class="fil80" points="1085,3964 1083,3962 1446,3549 1448,3550 "/>
    <polygon id="173" class="fil80" points="1083,3963 1081,3961 1444,3547 1446,3549 "/>
    <polygon id="174" class="fil80" points="1082,3962 1080,3960 1443,3546 1445,3548 "/>
    <polygon id="175" class="fil80" points="1081,3961 1079,3959 1442,3545 1444,3547 "/>
    <polygon id="176" class="fil81" points="1079,3959 1077,3958 1440,3544 1442,3546 "/>
    <polygon id="177" class="fil82" points="1078,3958 1076,3956 1439,3543 1441,3544 "/>
    <polygon id="178" class="fil82" points="1077,3957 1075,3955 1438,3541 1440,3543 "/>
    <polygon id="179" class="fil82" points="1075,3956 1073,3954 1436,3540 1438,3542 "/>
    <polygon id="180" class="fil82" points="1074,3955 1072,3953 1435,3539 1437,3541 "/>
    <polygon id="181" class="fil83" points="1073,3953 1070,3952 1433,3538 1436,3540 "/>
    <polygon id="182" class="fil83" points="1071,3952 1069,3950 1432,3537 1434,3538 "/>
    <polygon id="183" class="fil83" points="1070,3951 1068,3949 1431,3535 1433,3537 "/>
    <polygon id="184" class="fil84" points="1068,3950 1066,3948 1429,3534 1431,3536 "/>
    <polygon id="185" class="fil84" points="1067,3949 1065,3947 1428,3533 1430,3535 "/>
    <polygon id="186" class="fil84" points="1066,3947 1064,3946 1427,3532 1429,3534 "/>
    <polygon id="187" class="fil84" points="1064,3946 1062,3944 1425,3531 1427,3532 "/>
    <polygon id="188" class="fil84" points="1063,3945 1061,3943 1424,3530 1426,3531 "/>
    <polygon id="189" class="fil84" points="1062,3944 1060,3942 1423,3528 1425,3530 "/>
    <polygon id="190" class="fil84" points="1060,3943 1058,3941 1421,3527 1423,3529 "/>
    <polygon id="191" class="fil84" points="1059,3941 1057,3940 1420,3526 1422,3528 "/>
    <polygon id="192" class="fil84" points="1058,3940 1056,3939 1419,3525 1421,3527 "/>
    <polygon id="193" class="fil85" points="1056,3939 1054,3937 1417,3524 1419,3525 "/>
    <polygon id="194" class="fil86" points="1055,3938 1053,3936 1416,3522 1418,3524 "/>
    <polygon id="195" class="fil87" points="1054,3937 1051,3935 1414,3521 1416,3523 "/>
    <polygon id="196" class="fil87" points="1052,3936 1050,3934 1413,3520 1415,3522 "/>
    <polygon id="197" class="fil87" points="1051,3934 1049,3933 1412,3519 1414,3521 "/>
    <polygon id="198" class="fil87" points="1049,3933 1047,3931 1410,3518 1412,3519 "/>
    <polygon id="199" class="fil87" points="1048,3932 1046,3930 1409,3516 1411,3518 "/>
    <polygon id="200" class="fil87" points="1047,3931 1045,3929 1408,3515 1410,3517 "/>
    <polygon id="201" class="fil87" points="1045,3930 1043,3928 1406,3514 1408,3516 "/>
    <polygon id="202" class="fil87" points="1044,3928 1042,3927 1405,3513 1407,3515 "/>
    <polygon id="203" class="fil87" points="1043,3927 1041,3925 1404,3512 1406,3513 "/>
    <polygon id="204" class="fil87" points="1041,3926 1039,3924 1402,3510 1404,3512 "/>
    <polygon id="205" class="fil88" points="1040,3925 1038,3923 1401,3509 1403,3511 "/>
    <polygon id="206" class="fil88" points="1039,3924 1037,3922 1400,3508 1402,3510 "/>
    <polygon id="207" class="fil88" points="1037,3922 1035,3921 1398,3507 1400,3509 "/>
    <polygon id="208" class="fil88" points="1036,3921 1034,3919 1397,3506 1399,3507 "/>
    <polygon id="209" class="fil88" points="1035,3920 1032,3918 1395,3504 1397,3506 "/>
    <polygon id="210" class="fil88" points="1033,3919 1031,3917 1394,3503 1396,3505 "/>
    <polygon id="211" class="fil89" points="1032,3918 1030,3916 1393,3502 1395,3504 "/>
    <polygon id="212" class="fil89" points="1030,3916 1028,3915 1391,3501 1393,3503 "/>
    <polygon id="213" class="fil89" points="1029,3915 1027,3914 1390,3500 1392,3502 "/>
    <polygon id="214" class="fil89" points="1028,3914 1026,3912 1389,3499 1391,3500 "/>
    <polygon id="215" class="fil89" points="1026,3913 1024,3911 1387,3497 1389,3499 "/>
    <polygon id="216" class="fil89" points="1025,3912 1023,3910 1386,3496 1388,3498 "/>
    <polygon id="217" class="fil89" points="1024,3911 1022,3909 1385,3495 1387,3497 "/>
    <polygon id="218" class="fil89" points="1022,3909 1020,3908 1383,3494 1385,3496 "/>
    <polygon id="219" class="fil89" points="1021,3908 1019,3906 1382,3493 1384,3494 "/>
    <polygon id="220" class="fil90" points="1020,3907 1018,3905 1381,3491 1383,3493 "/>
    <polygon id="221" class="fil90" points="1018,3906 1016,3904 1379,3490 1381,3492 "/>
    <polygon id="222" class="fil90" points="1017,3905 1015,3903 1378,3489 1380,3491 "/>
    <polygon id="223" class="fil90" points="1015,3903 1013,3902 1376,3488 1378,3490 "/>
    <polygon id="224" class="fil90" points="1014,3902 1012,3900 1375,3487 1377,3488 "/>
    <polygon id="225" class="fil90" points="1013,3901 1011,3899 1374,3485 1376,3487 "/>
    <polygon id="226" class="fil90" points="1011,3900 1009,3898 1372,3484 1374,3486 "/>
    <polygon id="227" class="fil91" points="1010,3899 1008,3897 1371,3483 1373,3485 "/>
    <polygon id="228" class="fil91" points="1009,3897 1007,3896 1370,3482 1372,3484 "/>
    <polygon id="229" class="fil91" points="1007,3896 1005,3894 1368,3481 1370,3482 "/>
    <polygon id="230" class="fil91" points="1006,3895 1004,3893 1367,3479 1369,3481 "/>
    <polygon id="231" class="fil91" points="1005,3894 1003,3892 1366,3478 1368,3480 "/>
    <polygon id="232" class="fil91" points="1003,3893 1001,3891 1364,3477 1366,3479 "/>
    <polygon id="233" class="fil91" points="1002,3891 1000,3890 1363,3476 1365,3478 "/>
    <polygon id="234" class="fil91" points="1001,3890 999,3888 1361,3475 1364,3476 "/>
    <polygon id="235" class="fil91" points="999,3889 997,3887 1360,3474 1362,3475 "/>
    <polygon id="236" class="fil91" points="998,3888 996,3886 1359,3472 1361,3474 "/>
    <polygon id="237" class="fil92" points="996,3887 994,3885 1357,3471 1359,3473 "/>
    <polygon id="238" class="fil92" points="995,3886 993,3884 1356,3470 1358,3472 "/>
    <polygon id="239" class="fil92" points="994,3884 992,3883 1355,3469 1357,3471 "/>
    <polygon id="240" class="fil92" points="992,3883 990,3881 1353,3468 1355,3469 "/>
    <polygon id="241" class="fil92" points="991,3882 989,3880 1352,3466 1354,3468 "/>
    <polygon id="242" class="fil93" points="990,3881 988,3879 1351,3465 1353,3467 "/>
    <polygon id="243" class="fil93" points="988,3880 986,3878 1349,3464 1351,3466 "/>
    <polygon id="244" class="fil93" points="987,3878 985,3877 1348,3463 1350,3465 "/>
    <polygon id="245" class="fil93" points="986,3877 984,3875 1347,3462 1349,3463 "/>
    <polygon id="246" class="fil93" points="984,3876 982,3874 1345,3460 1347,3462 "/>
    <polygon id="247" class="fil93" points="983,3875 981,3873 1344,3459 1346,3461 "/>
    <polygon id="248" class="fil93" points="982,3874 980,3872 1342,3458 1345,3460 "/>
    <polygon id="249" class="fil93" points="980,3872 979,3872 1342,3458 1343,3459 "/>
   </g>
  </g>
 </g>
</svg>
